<svg width="157" height="157" fill="none" xmlns="http://www.w3.org/2000/svg"><path d="M0 95.109c0-.349.283-.632.632-.632h1.185c.91 0 2.727-.202 2.727-2.631V69.98c0-1.316-.09-4.454-2.363-4.454H.961a.632.632 0 0 1-.6-.828l1.951-5.977a.632.632 0 0 1 .6-.435h138.734c.349 0 .632.282.632.631v5.977a.632.632 0 0 1-.632.632H13.634c-1.182 0-2.727.304-2.727 2.935v6.884c.273.81 1.364 1.113 1.909 1.113.511 0 2.22-.089 2.432-2.853a.63.63 0 0 1 .623-.589h1.494c.349 0 .632.283.632.632v9.972a.632.632 0 0 1-.632.632H15.82a.633.633 0 0 1-.614-.49c-.242-.992-1.142-2.237-2.298-2.345-1.09-.101-2 .304-2 1.924v8.502c0 .912 1 2.632 3.363 2.632h1.004c.35 0 .632.283.632.632v3.924a.632.632 0 0 1-.632.632H.632A.632.632 0 0 1 0 99.032V95.11Z" fill="#C1C1C1"/><path d="M92.778 73.828v11.135h-6.362v-5.376s-.271-1.924-1.181-2.025a.748.748 0 0 0-.218.013c-1.017.186-3.1 2.084-3.69 3.023v12.159c0 1.601 1.2 2.154 1.892 2.34.278.073.47.323.47.61v3.327a.632.632 0 0 1-.63.631h-9.825a.634.634 0 0 1-.632-.631V95.67c0-.315.233-.577.545-.624.907-.135 1.741-.669 1.818-2.189V75.752c0-.252-.18-.736-.569-1.153a2.36 2.36 0 0 0-1.3-.725.622.622 0 0 1-.494-.615v-1.834c0-.35.283-.632.632-.632h6.94c.275 0 .507.182.602.44.237.645.923 1.214 1.37 1.38.638-.506 3.999-2.632 6.633-2.632 2.638 0 4 1.519 4 3.847ZM156.782 71.424v1.842a.632.632 0 0 1-.502.616c-.992.211-1.861 1.03-1.861 2.072v16.802c0 1.21.932 2.126 1.883 2.366.281.073.48.323.48.613v3.298a.632.632 0 0 1-.632.632h-9.824a.632.632 0 0 1-.632-.632v-3.465a.63.63 0 0 1 .433-.6c.204-.066.458-.167.714-.313.581-.328 1.172-.884 1.216-1.797V75.751c0-.253-.18-.736-.569-1.153a2.36 2.36 0 0 0-1.3-.725.622.622 0 0 1-.494-.615v-1.835c0-.349.283-.631.632-.631h9.824c.349 0 .632.282.632.631ZM68.24 73.828v10.504a.632.632 0 0 1-.632.631H62.51a.632.632 0 0 1-.632-.631v-4.745s-.272-1.924-1.182-2.025a.73.73 0 0 0-.215.013c-.96.172-2.862 1.863-3.573 2.847a.631.631 0 0 0-.12.37v11.965c0 .71.32 1.317.775 1.747.322.304.712.52 1.106.62.282.071.483.32.483.611v3.298a.632.632 0 0 1-.632.632h-9.824a.632.632 0 0 1-.632-.632v-3.362c0-.315.233-.578.545-.624a2.238 2.238 0 0 0 1.012-.392c.443-.328.758-.884.806-1.797V75.751c0-.253-.183-.736-.569-1.153a2.374 2.374 0 0 0-1.277-.72.636.636 0 0 1-.517-.62v-1.835c0-.349.283-.631.632-.631h6.938c.275 0 .506.181.6.44.238.644.927 1.214 1.373 1.379.635-.505 4-2.631 6.634-2.631 2.634 0 3.999 1.519 3.999 3.847ZM141.97 73.828v11.135h-6.362v-5.376s-.275-1.924-1.182-2.025a.7.7 0 0 0-.25.019c-.003-.003-.006 0-.009 0-1.036.23-3.067 2.091-3.652 3.017v12.159c0 .837.294 1.387.673 1.747.379.36.843.53 1.191.61.291.069.499.318.499.618v3.301a.632.632 0 0 1-.632.632h-9.824a.634.634 0 0 1-.632-.632V95.67c0-.313.234-.575.547-.622.906-.136 1.74-.67 1.816-2.19V75.752c0-.67-.29-1.106-.663-1.39-.379-.284-.84-.417-1.188-.48a.63.63 0 0 1-.511-.623v-1.835c0-.35.284-.631.631-.631h6.921c.294 0 .547.202.617.486.129.54.477 1.333 1.374 1.333.638-.505 3.999-2.631 6.636-2.631 2.635 0 4 1.519 4 3.847ZM37.533 89.618a.632.632 0 0 0-.632.632V91.289c0 1.113-.181 1.722-3.181 1.722s-3.908-2.227-3.908-3.847v-2.988c0-.506.364-.306 1-.306h11.82a.632.632 0 0 0 .631-.632v-7.665c0-3.34-.636-4.353-1.908-5.77-1.273-1.417-5.726-1.822-7.726-1.822-5.09 0-6.726.81-8.18 2.126-1.454 1.316-1.999 4.049-1.999 6.073v11.438c0 3.037.65 5.207 2.274 7.22 2.26 2.803 6.997 2.802 8.087 2.802 1.09 0 4.727.102 7.362-2.024 2.118-1.709 2.182-5.837 2.126-7.391a.63.63 0 0 0-.632-.606h-5.134Zm-7.721-11.846c0-1.01.454-2.522 3.635-2.522 3.181 0 3.454 1.639 3.454 2.522v2.27c0 .377-.455.756-1.09.756h-4.909c-.546 0-1.09-.316-1.09-.694v-2.332ZM116.156 92.756V77.572c0-2.328-.09-4.757-2.272-6.478-2.181-1.72-5.726-1.62-7.089-1.62-1.363 0-5.907 0-7.999 2.632-2.09 2.632-1.726 5.162-1.726 6.174h6.497s-.135-1.08.683-1.992c.823-.917 3-1.923 4.681-.303.619.597.863 1.366.863 2.227v1.992c0 .405-.364 1.012-.818 1.012 0 0-8.271.203-9.725 1.417-1.454 1.215-2.727 2.024-2.727 6.479 0 4.454 1 7.718 2.181 8.63 1.182.91 1.727 1.923 7.09 1.923h12.724v-4.48c-1.09 0-2.363-1.012-2.363-2.43Zm-6.362-.004c0 .139-.364.333-.636.333h-3.136c-2.227 0-2.863-1.164-2.863-1.884v-2.134c0-2.078 3.545-2.022 4.953-2.022 1.409 0 1.682.72 1.682 1.191v4.516ZM151.239 65.477c3.182 0 5.761-1.823 5.761-4.071 0-2.248-2.579-4.07-5.761-4.07-3.181 0-5.76 1.822-5.76 4.07s2.579 4.07 5.76 4.07ZM15.905 95.11v3.923a.632.632 0 0 1-.631.632H12.43v-5.62c.483.262 1.092.433 1.838.433h1.005a.63.63 0 0 1 .631.632ZM14.521 75.72v6.689c.337.422.577.918.685 1.362.069.283.32.482.611.482h1.547a.632.632 0 0 0 .632-.632V73.65a.632.632 0 0 0-.632-.632h-1.486a.628.628 0 0 0-.63.575c-.077 1.043-.367 1.706-.727 2.129ZM138.803 58.287v7.24h2.843a.632.632 0 0 0 .632-.631v-5.977a.632.632 0 0 0-.632-.632h-2.843Z" fill="#C1C1C1"/><path d="M88.78 69.981c-.568 0-1.17.103-1.772.263 1.517.529 2.297 1.824 2.297 3.584v11.134h3.475V73.827c0-2.328-1.364-3.846-4-3.846ZM154.419 75.954v16.802c0 1.21.932 2.126 1.883 2.367.281.072.48.322.48.612v3.298a.631.631 0 0 1-.632.632h-2.843v-4.48c-1.09 0-2.363-1.01-2.363-2.429V75.954c0-1.042.869-1.86 1.861-2.072a.63.63 0 0 0 .502-.616v-2.474h2.843a.63.63 0 0 1 .632.632v1.842a.632.632 0 0 1-.502.616c-.992.211-1.861 1.03-1.861 2.072ZM56.908 80.421a.63.63 0 0 0-.12.371v11.964c0 .711.32 1.318.775 1.747.322.305.711.52 1.105.62.283.072.484.32.484.612v3.298a.632.632 0 0 1-.632.632h-2.843v-4.48c-1.09 0-2.363-1.01-2.363-2.429V83.12c0-3.62 5.644-5.482 7.18-5.562-.006.003-.01.01-.013.016-.96.173-2.862 1.864-3.573 2.847ZM81.327 80.597v12.16c0 1.6 1.2 2.154 1.892 2.34.279.073.471.322.471.61v3.326a.632.632 0 0 1-.632.632h-2.846v-3.93c0-.291-.2-.54-.483-.612-.95-.24-1.88-1.155-1.88-2.366v-9.639c0-3.617 5.642-5.48 7.18-5.56-.006.004-.009.01-.012.017-1.017.186-3.099 2.084-3.69 3.022ZM134.205 77.559c-.007.003-.01.01-.013.016-.006 0-.009.003-.016.006-.003-.003-.006 0-.009 0-1.036.23-3.067 2.091-3.652 3.017v12.159c0 .837.294 1.387.673 1.747.379.36.843.53 1.191.61.291.069.499.318.499.618v3.301a.632.632 0 0 1-.632.632h-2.858v-3.93c0-.29-.202-.54-.484-.612-.951-.24-1.879-1.154-1.879-2.367v-9.638c0-3.616 5.642-5.48 7.18-5.56ZM64.24 69.981c-.568 0-1.17.103-1.772.263 1.517.529 2.297 1.824 2.297 3.584v11.134h2.843a.632.632 0 0 0 .632-.632V73.829c0-2.329-1.364-3.847-4-3.847ZM137.97 69.981c-.569 0-1.172.103-1.773.263 1.517.529 2.297 1.824 2.297 3.584v11.134h3.475V73.827c0-2.328-1.364-3.846-3.999-3.846ZM37.88 71.786c1.272 1.417 1.908 2.43 1.908 5.77v8.297h2.843a.632.632 0 0 0 .632-.631v-7.666c0-3.34-.636-4.353-1.908-5.77-1.273-1.417-5.726-1.822-7.726-1.822-.753 0-1.43.019-2.042.053 2.206.147 5.272.632 6.293 1.77ZM42.667 89.618h-2.879s.546 5.872-2.09 7.997c-1.737 1.4-3.904 1.833-5.495 1.966.727.058 1.307.059 1.607.059 1.09 0 4.727.101 7.362-2.025 2.119-1.708 2.182-5.836 2.126-7.39a.63.63 0 0 0-.631-.607ZM116.156 92.756V77.572c0-2.328-.09-4.757-2.272-6.478-2.181-1.72-5.726-1.62-7.089-1.62-.336 0-.866 0-1.504.04 1.615.098 3.667.435 5.119 1.58 2.181 1.72 2.272 4.15 2.272 6.478v15.184c0 1.417 1.272 2.429 2.363 2.429v4.48h3.475v-4.48c-1.091 0-2.364-1.012-2.364-2.43ZM151.239 57.335c-.605 0-1.189.067-1.737.19 2.332.52 4.023 2.06 4.023 3.881 0 1.82-1.691 3.36-4.023 3.881.548.123 1.132.19 1.737.19 3.182 0 5.761-1.823 5.761-4.071 0-2.248-2.579-4.07-5.761-4.07Z" fill="#C1C1C1"/></svg>